<svg width="29" height="16" viewBox="0 0 29 16" fill="none" xmlns="http://www.w3.org/2000/svg">
<path d="M2.59597 7.97937C2.15435 7.7181 2.15435 7.29295 2.59699 7.03111L12.5257 1.14336C12.9675 0.881352 12.9667 0.457043 12.5237 0.19567C12.0807 -0.0656695 11.3635 -0.0651669 10.9216 0.196843L0.993954 6.08396C-0.331148 6.86781 -0.331148 8.14325 0.992935 8.92649L10.9216 14.8142C11.143 14.9454 11.4332 15.011 11.7237 15.011C12.0131 15.011 12.3027 14.9458 12.5237 14.8153C12.9667 14.5539 12.9676 14.1296 12.5257 13.8676L2.59597 7.97937Z" fill="black"/>
<path d="M27.8671 6.83539H7.30559C6.67989 6.83539 6.17273 7.13539 6.17273 7.50552C6.17273 7.87565 6.67989 8.17566 7.30559 8.17566H27.8671C28.4928 8.17566 28.9999 7.87565 28.9999 7.50552C28.9999 7.13539 28.4928 6.83539 27.8671 6.83539Z" fill="black"/>
</svg>
